<?xml version="1.0" standalone="no"?>
<!DOCTYPE svg PUBLIC "-//W3C//DTD SVG 20010904//EN"
 "http://www.w3.org/TR/2001/REC-SVG-20010904/DTD/svg10.dtd">
<svg version="1.0" xmlns="http://www.w3.org/2000/svg"
 width="797.000000pt" height="768.000000pt" viewBox="0 0 797.000000 768.000000"
 preserveAspectRatio="xMidYMid meet">

<g transform="translate(0.000000,768.000000) scale(0.100000,-0.100000)"
fill="#000000" stroke="none">
<path d="M3815 7577 c-37 -40 -119 -125 -181 -189 l-115 -118 -474 0 -475 0 0
-22 c0 -12 5 -48 12 -80 16 -80 6 -89 -63 -54 -74 36 -82 34 -98 -21 -38 -131
-149 -323 -255 -440 -218 -240 -568 -360 -889 -307 l-37 7 0 -134 c0 -219 -43
-406 -131 -581 -64 -127 -279 -307 -486 -408 -59 -29 -116 -57 -125 -61 -10
-5 -24 -9 -32 -9 -8 0 -16 -6 -19 -12 -3 -11 37 -109 74 -180 5 -10 9 -27 9
-37 0 -11 4 -22 9 -25 5 -3 11 -20 14 -38 3 -18 11 -55 18 -83 6 -27 13 -125
16 -217 4 -153 2 -174 -17 -230 -72 -210 -173 -373 -318 -516 -52 -52 -91 -97
-86 -100 184 -127 316 -296 374 -477 7 -22 16 -49 21 -60 25 -64 29 -186 11
-365 -21 -204 -50 -324 -109 -448 -14 -29 -23 -55 -22 -56 2 -2 42 -15 89 -31
290 -95 477 -249 591 -490 87 -184 119 -330 119 -540 l0 -140 158 -1 c208 -1
346 -29 497 -100 217 -103 367 -245 458 -435 32 -66 77 -205 77 -236 0 -33 16
-32 94 7 152 77 280 107 486 117 168 7 265 -15 440 -99 141 -68 263 -165 383
-306 l28 -33 30 41 c132 182 379 335 629 389 64 14 360 10 430 -7 93 -21 226
-78 293 -125 16 -10 30 -18 32 -15 2 2 16 39 30 83 109 324 304 538 595 653
141 55 196 65 390 68 l185 3 -3 28 c-2 15 -5 91 -8 168 -7 169 8 259 67 391
23 53 100 178 118 194 4 3 15 19 25 35 35 54 159 175 226 219 95 63 153 90
270 127 58 18 107 33 108 35 2 1 -14 29 -35 61 -99 147 -126 246 -127 458 -1
230 32 412 100 548 69 136 196 269 309 323 19 9 35 19 35 23 0 4 -22 24 -50
45 -151 115 -277 305 -352 529 l-30 92 5 205 c7 252 29 346 112 484 36 59 37
76 7 76 -59 0 -284 110 -385 188 -82 62 -184 168 -232 238 -22 33 -42 61 -45
64 -9 7 -67 130 -78 165 -48 149 -63 317 -41 456 7 38 10 72 6 75 -3 3 -42 0
-88 -7 -90 -13 -227 -2 -344 28 -76 19 -205 70 -226 89 -8 8 -22 14 -30 14
-31 0 -185 106 -259 179 -86 84 -121 134 -167 231 -43 93 -53 124 -78 242 -6
29 -10 29 -73 1 -19 -8 -36 -12 -40 -9 -3 4 -9 36 -13 72 -5 35 -11 69 -14 74
-4 6 -176 10 -447 10 l-441 0 -51 53 c-216 226 -303 314 -312 320 -6 4 -40
-25 -79 -66z m125 -124 c18 -21 86 -93 151 -160 l119 -123 409 0 c258 0 412
-4 416 -10 3 -5 -15 -24 -42 -42 -61 -42 -167 -147 -221 -219 -23 -31 -42 -59
-42 -62 0 -4 -10 -18 -22 -32 l-22 -25 -306 0 -307 0 -79 -40 c-43 -22 -87
-41 -99 -42 -12 -1 -60 17 -107 40 l-86 42 -304 0 c-341 0 -311 -7 -360 77
-44 76 -138 168 -257 250 -30 21 -55 43 -55 48 -1 6 147 11 420 13 l422 2 153
160 c85 88 161 160 170 160 10 0 32 -17 49 -37z m1209 -403 c36 0 78 -50 111
-132 89 -226 186 -350 343 -435 69 -38 68 -40 -53 -62 -207 -37 -519 -68 -825
-82 -208 -9 -304 -8 -570 6 -176 9 -369 20 -430 25 -467 36 -746 35 -905 -6
-111 -27 -218 -85 -288 -154 -34 -34 -62 -67 -62 -73 0 -7 29 -31 63 -53 l63
-41 45 46 c71 73 180 119 324 138 90 12 347 9 550 -5 99 -7 252 -18 340 -25
225 -15 1056 -15 1220 1 218 21 273 28 465 57 19 3 60 10 90 16 30 6 80 15
110 20 30 6 65 13 78 15 16 3 22 11 22 29 0 18 4 23 15 19 16 -6 21 -34 7 -34
-5 0 -16 -17 -25 -38 -9 -21 -25 -47 -34 -57 -10 -11 -24 -32 -32 -47 -8 -16
-18 -28 -23 -28 -4 0 -8 -6 -8 -13 0 -7 -8 -22 -18 -33 -10 -10 -53 -72 -97
-137 l-80 -119 60 -51 c111 -96 299 -289 365 -377 14 -18 30 -38 36 -44 32
-33 187 -276 251 -393 80 -147 203 -475 232 -618 5 -22 15 -74 24 -115 69
-341 69 -691 1 -1035 -114 -578 -410 -1098 -849 -1496 -27 -24 -70 -60 -95
-79 -24 -19 -53 -43 -65 -54 -24 -22 -209 -147 -260 -176 -19 -11 -50 -28 -68
-39 -180 -102 -364 -177 -612 -250 -176 -53 -393 -82 -640 -88 -428 -10 -785
60 -1165 229 -73 32 -195 92 -200 98 -3 3 -25 16 -50 29 -53 29 -279 179 -298
198 -8 7 -30 26 -50 41 -104 77 -302 275 -408 407 -84 104 -204 277 -204 294
0 5 -3 11 -7 13 -5 1 -16 17 -25 33 -19 32 -143 285 -159 323 -5 12 -13 32
-18 45 -5 12 -15 40 -22 62 -7 22 -17 44 -21 50 -4 5 -8 19 -8 31 0 13 -4 25
-9 28 -5 3 -11 18 -14 33 -3 16 -12 57 -21 93 -9 36 -21 81 -26 100 -34 137
-70 436 -70 591 0 212 50 555 110 749 4 14 13 45 21 70 7 25 16 49 21 54 4 6
8 18 8 28 0 10 4 26 9 36 8 16 18 39 40 95 28 69 92 202 130 270 12 20 31 54
42 75 29 50 173 262 196 287 10 11 31 38 47 60 39 52 309 323 361 360 22 17
47 38 57 48 18 20 23 10 -224 371 -37 55 -68 105 -68 111 0 7 21 22 48 36 146
73 286 192 371 318 44 64 111 201 134 271 21 62 35 69 94 41 61 -30 80 -37
123 -50 82 -23 119 -31 148 -31 25 0 40 -11 79 -56 26 -30 64 -85 83 -122 l35
-67 335 -5 335 -5 96 -47 c53 -27 105 -48 115 -48 11 0 57 22 104 48 l85 47
339 5 339 5 24 40 c13 22 26 48 30 58 3 9 9 17 14 17 5 0 9 5 9 11 0 6 6 17
13 24 6 7 30 35 52 62 70 86 199 181 220 162 5 -5 16 -9 24 -9z"/>
<path d="M3769 5986 c-3 -3 -59 -11 -125 -16 -117 -10 -186 -19 -274 -39 -25
-5 -58 -13 -75 -16 -16 -4 -39 -10 -50 -15 -11 -4 -54 -18 -95 -31 -41 -12
-79 -26 -84 -31 -6 -4 -16 -8 -23 -8 -28 0 -247 -107 -361 -177 -44 -26 -105
-67 -122 -80 -8 -7 -44 -33 -80 -60 -94 -69 -290 -262 -380 -375 -82 -102
-120 -156 -192 -278 -58 -98 -131 -252 -159 -335 -7 -22 -17 -44 -21 -50 -4
-5 -8 -19 -8 -31 0 -13 -4 -26 -10 -29 -5 -3 -10 -19 -10 -35 0 -16 -4 -31 -9
-34 -5 -3 -11 -20 -14 -38 -3 -18 -11 -55 -17 -83 -77 -348 -70 -757 20 -1070
6 -22 14 -51 16 -65 3 -14 9 -34 14 -45 4 -11 13 -36 20 -55 7 -19 16 -45 21
-57 5 -13 13 -33 18 -45 37 -92 88 -202 116 -248 77 -125 117 -185 175 -265
125 -169 335 -372 520 -501 96 -67 324 -190 415 -224 11 -4 31 -12 45 -18 14
-5 41 -15 60 -22 19 -7 44 -16 55 -20 11 -5 31 -11 45 -15 14 -3 41 -11 60
-16 73 -21 192 -44 315 -62 198 -27 597 -10 765 33 19 5 58 14 85 21 50 12
213 63 250 79 75 31 109 47 180 81 87 43 155 81 197 110 14 11 30 19 35 19 5
0 18 8 29 18 10 10 35 28 54 42 128 88 322 268 420 388 19 24 43 54 53 65 10
12 26 34 35 50 9 15 20 27 24 27 4 0 8 7 8 15 0 8 4 15 8 15 5 0 15 12 22 28
8 15 22 38 31 52 30 45 68 114 108 195 34 71 50 105 81 180 20 47 69 206 88
285 80 332 84 689 11 1020 -18 82 -73 263 -98 325 -5 11 -13 31 -18 45 -18 42
-122 253 -149 299 -26 45 -96 151 -120 180 -186 234 -353 393 -556 530 -77 52
-222 137 -268 157 -14 6 -47 22 -75 34 -27 12 -60 26 -72 31 -13 5 -33 13 -45
18 -31 13 -115 41 -158 53 -19 5 -51 14 -70 19 -80 24 -222 49 -340 60 -150
14 -314 22 -321 15z m386 -124 c144 -23 150 -25 258 -54 356 -96 678 -279 943
-534 80 -77 194 -208 239 -275 17 -24 38 -53 48 -63 9 -11 17 -25 17 -32 0 -7
3 -14 8 -16 17 -7 147 -252 183 -345 5 -13 13 -33 18 -45 29 -67 63 -185 92
-318 37 -168 53 -399 39 -592 -12 -178 -23 -248 -60 -398 -6 -25 -14 -57 -17
-73 -3 -15 -9 -30 -14 -33 -5 -3 -9 -15 -9 -28 0 -12 -4 -26 -8 -31 -4 -6 -14
-28 -21 -50 -35 -112 -131 -295 -233 -448 -106 -159 -278 -347 -433 -474 -139
-113 -372 -249 -535 -312 -47 -18 -93 -37 -102 -42 -10 -5 -27 -9 -37 -9 -11
0 -23 -4 -26 -10 -3 -5 -19 -10 -35 -10 -16 0 -31 -4 -34 -9 -3 -5 -20 -11
-38 -14 -18 -3 -55 -11 -83 -17 -177 -37 -398 -52 -595 -39 -177 11 -247 21
-400 59 -25 6 -57 14 -73 17 -15 3 -30 9 -33 14 -3 5 -16 9 -29 9 -13 0 -27 5
-30 10 -3 5 -15 10 -26 10 -10 0 -27 4 -37 9 -9 6 -37 18 -62 28 -95 38 -259
128 -366 199 -505 336 -844 873 -935 1479 -17 112 -23 449 -9 545 27 199 83
434 120 502 6 10 10 22 10 28 0 13 51 124 102 225 36 71 162 272 178 285 3 3
28 33 54 68 48 63 200 222 266 278 72 61 203 157 282 206 68 42 267 143 333
168 154 60 290 98 425 119 36 6 90 15 120 20 67 11 461 6 545 -7z"/>
<path d="M2953 4922 c-7 -5 -17 -29 -23 -55 -15 -73 -37 -163 -61 -259 -14
-59 -29 -127 -35 -163 -6 -32 -6 -34 321 -1000 97 -286 206 -609 242 -717 l66
-198 424 0 c232 0 423 3 423 8 0 4 -5 23 -11 42 -6 19 -14 49 -19 65 -4 17
-65 219 -134 450 -70 231 -138 458 -152 505 -14 47 -29 96 -33 110 -5 14 -14
45 -21 70 -7 25 -20 70 -30 100 -10 30 -23 75 -30 100 -7 25 -20 70 -30 100
-10 30 -23 75 -30 100 -26 92 -33 115 -40 135 -4 11 -13 40 -20 65 -28 101
-33 116 -41 132 -5 10 -9 27 -9 38 0 11 -4 28 -9 38 -5 9 -14 37 -21 62 -7 25
-16 53 -21 62 -5 10 -9 27 -9 38 0 11 -4 28 -9 38 -5 9 -14 37 -21 62 -22 81
8 75 -341 77 -173 2 -320 -1 -326 -5z"/>
<path d="M4056 4914 c-9 -8 -16 -25 -16 -37 0 -11 -4 -34 -9 -51 -5 -17 -15
-51 -21 -76 -6 -25 -16 -60 -22 -78 -15 -50 -12 -115 10 -179 20 -59 45 -142
83 -268 11 -38 24 -81 29 -95 5 -14 22 -70 39 -125 16 -55 67 -219 112 -365
44 -146 90 -293 100 -327 10 -35 28 -93 40 -130 11 -38 24 -81 29 -98 4 -16
14 -50 22 -75 8 -25 25 -79 38 -120 12 -41 31 -100 40 -130 10 -30 23 -75 30
-100 7 -25 19 -63 25 -85 l13 -40 366 -3 c201 -1 366 0 366 2 0 2 -59 179
-131 393 -71 213 -182 546 -246 738 -63 193 -119 358 -124 367 -5 10 -9 27 -9
37 0 11 -4 23 -10 26 -5 3 -10 17 -10 30 0 13 -4 27 -10 30 -5 3 -10 17 -10
30 0 13 -4 27 -10 30 -5 3 -10 17 -10 30 0 13 -4 27 -10 30 -5 3 -10 17 -10
30 0 13 -4 27 -10 30 -5 3 -10 17 -10 30 0 13 -4 27 -10 30 -5 3 -10 17 -10
30 0 13 -4 27 -10 30 -5 3 -10 17 -10 30 0 13 -4 27 -10 30 -5 3 -10 17 -10
30 0 13 -4 27 -10 30 -5 3 -10 17 -10 30 0 13 -4 27 -10 30 -5 3 -10 17 -10
30 0 13 -4 27 -10 30 -5 3 -10 17 -10 30 0 13 -4 27 -10 30 -5 3 -10 17 -10
30 0 13 -4 27 -10 30 -5 3 -10 17 -10 30 0 13 -4 27 -10 30 -5 3 -10 14 -10
25 0 10 -7 21 -16 24 -9 3 -114 6 -234 6 -185 0 -221 -2 -234 -16z"/>
<path d="M2725 3984 c-4 -10 -11 -37 -16 -59 -4 -22 -13 -60 -19 -85 -6 -25
-15 -64 -21 -87 -5 -24 -13 -62 -18 -85 -6 -24 -15 -63 -21 -88 -6 -25 -15
-63 -20 -85 -5 -22 -13 -58 -18 -80 -14 -55 -31 -132 -42 -180 -12 -52 -30
-131 -40 -175 -5 -19 -14 -57 -20 -85 -7 -27 -16 -68 -22 -90 -5 -22 -13 -58
-18 -80 -5 -22 -13 -58 -18 -80 -19 -77 -33 -140 -39 -167 l-5 -28 406 0 c223
0 406 2 406 5 0 2 -6 24 -14 47 -18 54 -73 225 -171 533 -42 132 -85 265 -95
295 -10 30 -37 116 -60 190 -23 74 -46 144 -50 155 -8 21 -67 210 -73 234 -2
11 -5 10 -12 -5z"/>
</g>
</svg>
